<mxfile host="app.diagrams.net" modified="2023-10-14T19:38:59.281Z" agent="Mozilla/5.0 (Macintosh; Intel Mac OS X 10_15_7) AppleWebKit/537.36 (KHTML, like Gecko) Chrome/116.0.0.0 Safari/537.36" etag="Jt9hWcpvvpGLCdmwg10k" version="22.0.4" type="device" pages="5">
  <diagram name="See Profile" id="WvetUiQc1NyrA-Y8KZwb">
    <mxGraphModel dx="1781" dy="642" grid="1" gridSize="10" guides="1" tooltips="1" connect="1" arrows="1" fold="1" page="1" pageScale="1" pageWidth="827" pageHeight="1169" math="0" shadow="0">
      <root>
        <mxCell id="0" />
        <mxCell id="1" parent="0" />
        <mxCell id="w0RyQ-a9GXZPSGahsZGV-1" value="Profile" style="rounded=0;whiteSpace=wrap;html=1;" parent="1" vertex="1">
          <mxGeometry x="340" y="20" width="120" height="60" as="geometry" />
        </mxCell>
        <mxCell id="w0RyQ-a9GXZPSGahsZGV-3" value="Database" style="shape=cylinder3;whiteSpace=wrap;html=1;boundedLbl=1;backgroundOutline=1;size=15;" parent="1" vertex="1">
          <mxGeometry x="690" y="10" width="60" height="80" as="geometry" />
        </mxCell>
        <mxCell id="w0RyQ-a9GXZPSGahsZGV-5" value="" style="rounded=0;whiteSpace=wrap;html=1;rotation=-90;" parent="1" vertex="1">
          <mxGeometry x="215" y="295" width="370" height="20" as="geometry" />
        </mxCell>
        <mxCell id="w0RyQ-a9GXZPSGahsZGV-7" value="" style="rounded=0;whiteSpace=wrap;html=1;rotation=-90;" parent="1" vertex="1">
          <mxGeometry x="692.5" y="167.5" width="55" height="20" as="geometry" />
        </mxCell>
        <mxCell id="w0RyQ-a9GXZPSGahsZGV-8" value="" style="endArrow=classic;html=1;rounded=0;entryX=0.948;entryY=-0.3;entryDx=0;entryDy=0;entryPerimeter=0;" parent="1" edge="1" target="w0RyQ-a9GXZPSGahsZGV-5">
          <mxGeometry width="50" height="50" relative="1" as="geometry">
            <mxPoint x="70" y="140" as="sourcePoint" />
            <mxPoint x="300" y="220" as="targetPoint" />
          </mxGeometry>
        </mxCell>
        <mxCell id="w0RyQ-a9GXZPSGahsZGV-9" value="get_profile(username)" style="edgeLabel;html=1;align=center;verticalAlign=middle;resizable=0;points=[];" parent="w0RyQ-a9GXZPSGahsZGV-8" vertex="1" connectable="0">
          <mxGeometry x="-0.3818" y="-1" relative="1" as="geometry">
            <mxPoint x="16" y="-1" as="offset" />
          </mxGeometry>
        </mxCell>
        <mxCell id="w0RyQ-a9GXZPSGahsZGV-12" value="" style="endArrow=none;dashed=1;html=1;dashPattern=1 3;strokeWidth=2;rounded=0;entryX=0.5;entryY=1;entryDx=0;entryDy=0;exitX=1;exitY=0.5;exitDx=0;exitDy=0;" parent="1" source="w0RyQ-a9GXZPSGahsZGV-5" target="w0RyQ-a9GXZPSGahsZGV-1" edge="1">
          <mxGeometry width="50" height="50" relative="1" as="geometry">
            <mxPoint x="260" y="120" as="sourcePoint" />
            <mxPoint x="280" y="100" as="targetPoint" />
          </mxGeometry>
        </mxCell>
        <mxCell id="w0RyQ-a9GXZPSGahsZGV-13" value="" style="endArrow=none;dashed=1;html=1;dashPattern=1 3;strokeWidth=2;rounded=0;entryX=0;entryY=0.5;entryDx=0;entryDy=0;exitX=0.481;exitY=0.994;exitDx=0;exitDy=0;exitPerimeter=0;" parent="1" source="dCkX9Ye3nJDJErghaK4u-3" edge="1" target="w0RyQ-a9GXZPSGahsZGV-5">
          <mxGeometry width="50" height="50" relative="1" as="geometry">
            <mxPoint x="400" y="620" as="sourcePoint" />
            <mxPoint x="450" y="450" as="targetPoint" />
          </mxGeometry>
        </mxCell>
        <mxCell id="w0RyQ-a9GXZPSGahsZGV-24" value="" style="endArrow=none;dashed=1;html=1;dashPattern=1 3;strokeWidth=2;rounded=0;exitX=1;exitY=0.5;exitDx=0;exitDy=0;entryX=0.5;entryY=1;entryDx=0;entryDy=0;entryPerimeter=0;" parent="1" source="w0RyQ-a9GXZPSGahsZGV-7" target="w0RyQ-a9GXZPSGahsZGV-3" edge="1">
          <mxGeometry width="50" height="50" relative="1" as="geometry">
            <mxPoint x="460" y="160" as="sourcePoint" />
            <mxPoint x="510" y="110" as="targetPoint" />
          </mxGeometry>
        </mxCell>
        <mxCell id="w0RyQ-a9GXZPSGahsZGV-25" value="" style="endArrow=none;dashed=1;html=1;dashPattern=1 3;strokeWidth=2;rounded=0;exitX=0.859;exitY=0.971;exitDx=0;exitDy=0;exitPerimeter=0;entryX=0;entryY=0.5;entryDx=0;entryDy=0;" parent="1" source="dCkX9Ye3nJDJErghaK4u-3" edge="1" target="w0RyQ-a9GXZPSGahsZGV-7">
          <mxGeometry width="50" height="50" relative="1" as="geometry">
            <mxPoint x="720" y="600" as="sourcePoint" />
            <mxPoint x="719.5" y="240" as="targetPoint" />
          </mxGeometry>
        </mxCell>
        <mxCell id="dCkX9Ye3nJDJErghaK4u-3" value="alt" style="shape=umlFrame;whiteSpace=wrap;html=1;pointerEvents=0;" parent="1" vertex="1">
          <mxGeometry x="-10" y="270" width="850" height="260" as="geometry" />
        </mxCell>
        <mxCell id="dCkX9Ye3nJDJErghaK4u-4" value="[status = 200]" style="text;html=1;strokeColor=none;fillColor=none;align=center;verticalAlign=middle;whiteSpace=wrap;rounded=0;" parent="1" vertex="1">
          <mxGeometry x="79" y="271" width="80" height="30" as="geometry" />
        </mxCell>
        <mxCell id="dCkX9Ye3nJDJErghaK4u-5" value="" style="endArrow=none;dashed=1;html=1;dashPattern=1 3;strokeWidth=2;rounded=0;entryX=1.003;entryY=0.416;entryDx=0;entryDy=0;entryPerimeter=0;exitX=0.001;exitY=0.412;exitDx=0;exitDy=0;exitPerimeter=0;" parent="1" source="dCkX9Ye3nJDJErghaK4u-3" target="dCkX9Ye3nJDJErghaK4u-3" edge="1">
          <mxGeometry width="50" height="50" relative="1" as="geometry">
            <mxPoint x="50" y="550" as="sourcePoint" />
            <mxPoint x="821.5" y="320" as="targetPoint" />
            <Array as="points" />
          </mxGeometry>
        </mxCell>
        <mxCell id="dCkX9Ye3nJDJErghaK4u-6" value="[status not = 200]" style="text;html=1;strokeColor=none;fillColor=none;align=center;verticalAlign=middle;whiteSpace=wrap;rounded=0;" parent="1" vertex="1">
          <mxGeometry x="74" y="390" width="110" height="30" as="geometry" />
        </mxCell>
        <mxCell id="dCkX9Ye3nJDJErghaK4u-7" value="error_message" style="endArrow=classic;html=1;rounded=0;dashed=1;" parent="1" edge="1">
          <mxGeometry width="50" height="50" relative="1" as="geometry">
            <mxPoint x="390" y="450" as="sourcePoint" />
            <mxPoint x="70" y="450" as="targetPoint" />
          </mxGeometry>
        </mxCell>
        <mxCell id="dCkX9Ye3nJDJErghaK4u-23" value="profile_info" style="edgeStyle=orthogonalEdgeStyle;rounded=0;orthogonalLoop=1;jettySize=auto;html=1;dashed=1;" parent="1" edge="1">
          <mxGeometry relative="1" as="geometry">
            <mxPoint x="390" y="320" as="sourcePoint" />
            <mxPoint x="70" y="320" as="targetPoint" />
          </mxGeometry>
        </mxCell>
        <mxCell id="WlaTN2wlTjl3mBXOqpmM-1" value="Member" style="shape=umlActor;verticalLabelPosition=bottom;verticalAlign=top;html=1;outlineConnect=0;" parent="1" vertex="1">
          <mxGeometry x="19.999999999999986" y="20" width="30" height="60" as="geometry" />
        </mxCell>
        <mxCell id="WlaTN2wlTjl3mBXOqpmM-2" value="" style="endArrow=none;dashed=1;html=1;dashPattern=1 3;strokeWidth=2;rounded=0;exitX=0.088;exitY=1;exitDx=0;exitDy=0;exitPerimeter=0;" parent="1" edge="1" source="dCkX9Ye3nJDJErghaK4u-3">
          <mxGeometry width="50" height="50" relative="1" as="geometry">
            <mxPoint x="60" y="585" as="sourcePoint" />
            <mxPoint x="65" y="100" as="targetPoint" />
            <Array as="points">
              <mxPoint x="65" y="130" />
            </Array>
          </mxGeometry>
        </mxCell>
        <mxCell id="_FqUxNzWqZQTVxe79Sfc-1" value="Guest" style="shape=umlActor;verticalLabelPosition=bottom;verticalAlign=top;html=1;outlineConnect=0;" vertex="1" parent="1">
          <mxGeometry x="73.99999999999999" y="20" width="30" height="60" as="geometry" />
        </mxCell>
        <mxCell id="_FqUxNzWqZQTVxe79Sfc-5" value="&amp;lt;profile_info, status&amp;gt;" style="endArrow=classic;html=1;rounded=0;dashed=1;" edge="1" parent="1">
          <mxGeometry width="50" height="50" relative="1" as="geometry">
            <mxPoint x="710" y="200" as="sourcePoint" />
            <mxPoint x="420" y="200" as="targetPoint" />
            <mxPoint as="offset" />
          </mxGeometry>
        </mxCell>
        <mxCell id="_FqUxNzWqZQTVxe79Sfc-9" value="" style="endArrow=classic;html=1;rounded=0;exitX=0.907;exitY=1.15;exitDx=0;exitDy=0;exitPerimeter=0;" edge="1" parent="1" source="w0RyQ-a9GXZPSGahsZGV-5">
          <mxGeometry width="50" height="50" relative="1" as="geometry">
            <mxPoint x="413" y="154" as="sourcePoint" />
            <mxPoint x="700" y="154" as="targetPoint" />
          </mxGeometry>
        </mxCell>
        <mxCell id="_FqUxNzWqZQTVxe79Sfc-10" value="get_profile(username)" style="edgeLabel;html=1;align=center;verticalAlign=middle;resizable=0;points=[];" vertex="1" connectable="0" parent="_FqUxNzWqZQTVxe79Sfc-9">
          <mxGeometry x="-0.3818" y="-1" relative="1" as="geometry">
            <mxPoint x="53" y="-1" as="offset" />
          </mxGeometry>
        </mxCell>
      </root>
    </mxGraphModel>
  </diagram>
  <diagram id="B1eB1EqahwZY3Ga-usCD" name="Edit Profile Info">
    <mxGraphModel dx="867" dy="584" grid="1" gridSize="10" guides="1" tooltips="1" connect="1" arrows="1" fold="1" page="1" pageScale="1" pageWidth="827" pageHeight="1169" background="#ffffff" math="0" shadow="0">
      <root>
        <mxCell id="0" />
        <mxCell id="1" parent="0" />
        <mxCell id="0Q3USm9ZTBjW5J9G-_IP-60" value="Profile" style="rounded=0;whiteSpace=wrap;html=1;" parent="1" vertex="1">
          <mxGeometry x="450" y="70" width="120" height="60" as="geometry" />
        </mxCell>
        <mxCell id="0Q3USm9ZTBjW5J9G-_IP-61" value="Database" style="shape=cylinder3;whiteSpace=wrap;html=1;boundedLbl=1;backgroundOutline=1;size=15;" parent="1" vertex="1">
          <mxGeometry x="830" y="50" width="60" height="80" as="geometry" />
        </mxCell>
        <mxCell id="0Q3USm9ZTBjW5J9G-_IP-63" value="" style="endArrow=none;dashed=1;html=1;dashPattern=1 3;strokeWidth=2;rounded=0;entryX=0.5;entryY=1;entryDx=0;entryDy=0;" parent="1" source="0Q3USm9ZTBjW5J9G-_IP-75" target="0Q3USm9ZTBjW5J9G-_IP-60" edge="1">
          <mxGeometry width="50" height="50" relative="1" as="geometry">
            <mxPoint x="510" y="920.7999267578125" as="sourcePoint" />
            <mxPoint x="509.5" y="140" as="targetPoint" />
          </mxGeometry>
        </mxCell>
        <mxCell id="0Q3USm9ZTBjW5J9G-_IP-64" value="" style="endArrow=none;dashed=1;html=1;dashPattern=1 3;strokeWidth=2;rounded=0;entryX=0.5;entryY=1;entryDx=0;entryDy=0;entryPerimeter=0;" parent="1" source="0Q3USm9ZTBjW5J9G-_IP-76" target="0Q3USm9ZTBjW5J9G-_IP-61" edge="1">
          <mxGeometry width="50" height="50" relative="1" as="geometry">
            <mxPoint x="750" y="921.5999755859375" as="sourcePoint" />
            <mxPoint x="749.5" y="130" as="targetPoint" />
          </mxGeometry>
        </mxCell>
        <mxCell id="0Q3USm9ZTBjW5J9G-_IP-65" value="Member" style="shape=umlActor;verticalLabelPosition=bottom;verticalAlign=top;html=1;outlineConnect=0;" parent="1" vertex="1">
          <mxGeometry x="90" y="130" width="30" height="60" as="geometry" />
        </mxCell>
        <mxCell id="0Q3USm9ZTBjW5J9G-_IP-69" value="" style="endArrow=classic;html=1;rounded=0;" parent="1" edge="1">
          <mxGeometry width="50" height="50" relative="1" as="geometry">
            <mxPoint x="530" y="230" as="sourcePoint" />
            <mxPoint x="850" y="230" as="targetPoint" />
          </mxGeometry>
        </mxCell>
        <mxCell id="0Q3USm9ZTBjW5J9G-_IP-70" value="update_profile(username, field, new_value)" style="edgeLabel;html=1;align=center;verticalAlign=middle;resizable=0;points=[];" parent="0Q3USm9ZTBjW5J9G-_IP-69" vertex="1" connectable="0">
          <mxGeometry x="0.1347" y="-4" relative="1" as="geometry">
            <mxPoint x="-18" y="-4" as="offset" />
          </mxGeometry>
        </mxCell>
        <mxCell id="0Q3USm9ZTBjW5J9G-_IP-75" value="" style="rounded=0;whiteSpace=wrap;html=1;direction=south;" parent="1" vertex="1">
          <mxGeometry x="500" y="210" width="20" height="330" as="geometry" />
        </mxCell>
        <mxCell id="0Q3USm9ZTBjW5J9G-_IP-76" value="" style="rounded=0;whiteSpace=wrap;html=1;direction=south;" parent="1" vertex="1">
          <mxGeometry x="855" y="220" width="10" height="50" as="geometry" />
        </mxCell>
        <mxCell id="0Q3USm9ZTBjW5J9G-_IP-91" value="" style="endArrow=none;dashed=1;html=1;dashPattern=1 3;strokeWidth=2;rounded=0;entryX=1;entryY=0.5;entryDx=0;entryDy=0;exitX=0.936;exitY=1.007;exitDx=0;exitDy=0;exitPerimeter=0;" parent="1" target="0Q3USm9ZTBjW5J9G-_IP-76" edge="1" source="UUoXnnlKsAdmTaTcyfOm-3">
          <mxGeometry width="50" height="50" relative="1" as="geometry">
            <mxPoint x="860" y="670" as="sourcePoint" />
            <mxPoint x="749.5" y="290" as="targetPoint" />
          </mxGeometry>
        </mxCell>
        <mxCell id="UUoXnnlKsAdmTaTcyfOm-2" value="profile_info" style="rounded=0;orthogonalLoop=1;jettySize=auto;html=1;dashed=1;entryX=0.098;entryY=0.278;entryDx=0;entryDy=0;entryPerimeter=0;" parent="1" edge="1" target="UUoXnnlKsAdmTaTcyfOm-3">
          <mxGeometry relative="1" as="geometry">
            <mxPoint x="500" y="374.44" as="sourcePoint" />
            <mxPoint x="245" y="374.94" as="targetPoint" />
            <mxPoint as="offset" />
          </mxGeometry>
        </mxCell>
        <mxCell id="UUoXnnlKsAdmTaTcyfOm-3" value="alt" style="shape=umlFrame;whiteSpace=wrap;html=1;pointerEvents=0;" parent="1" vertex="1">
          <mxGeometry x="90" y="300" width="820" height="270" as="geometry" />
        </mxCell>
        <mxCell id="UUoXnnlKsAdmTaTcyfOm-4" value="[status = 200]" style="text;html=1;strokeColor=none;fillColor=none;align=center;verticalAlign=middle;whiteSpace=wrap;rounded=0;" parent="1" vertex="1">
          <mxGeometry x="170" y="310" width="80" height="30" as="geometry" />
        </mxCell>
        <mxCell id="UUoXnnlKsAdmTaTcyfOm-14" value="" style="endArrow=none;dashed=1;html=1;dashPattern=1 3;strokeWidth=2;rounded=0;entryX=1;entryY=0.358;entryDx=0;entryDy=0;entryPerimeter=0;exitX=-0.001;exitY=0.358;exitDx=0;exitDy=0;exitPerimeter=0;" parent="1" target="UUoXnnlKsAdmTaTcyfOm-3" edge="1" source="UUoXnnlKsAdmTaTcyfOm-3">
          <mxGeometry width="50" height="50" relative="1" as="geometry">
            <mxPoint x="290" y="507" as="sourcePoint" />
            <mxPoint x="840.75" y="503" as="targetPoint" />
          </mxGeometry>
        </mxCell>
        <mxCell id="UUoXnnlKsAdmTaTcyfOm-18" value="" style="endArrow=classic;html=1;rounded=0;dashed=1;entryX=0.098;entryY=0.593;entryDx=0;entryDy=0;entryPerimeter=0;" parent="1" target="UUoXnnlKsAdmTaTcyfOm-3" edge="1">
          <mxGeometry width="50" height="50" relative="1" as="geometry">
            <mxPoint x="495" y="460" as="sourcePoint" />
            <mxPoint x="180.20000000000005" y="460.0500000000002" as="targetPoint" />
          </mxGeometry>
        </mxCell>
        <mxCell id="UUoXnnlKsAdmTaTcyfOm-19" value="error_message" style="edgeLabel;html=1;align=center;verticalAlign=middle;resizable=0;points=[];" parent="UUoXnnlKsAdmTaTcyfOm-18" vertex="1" connectable="0">
          <mxGeometry x="0.2286" y="1" relative="1" as="geometry">
            <mxPoint x="34" as="offset" />
          </mxGeometry>
        </mxCell>
        <mxCell id="UUoXnnlKsAdmTaTcyfOm-21" value="[status not = 200]" style="text;html=1;strokeColor=none;fillColor=none;align=center;verticalAlign=middle;whiteSpace=wrap;rounded=0;" parent="1" vertex="1">
          <mxGeometry x="170" y="400" width="110" height="30" as="geometry" />
        </mxCell>
        <mxCell id="UUoXnnlKsAdmTaTcyfOm-32" value="" style="endArrow=none;dashed=1;html=1;rounded=0;strokeWidth=2;dashPattern=1 4;" parent="1" edge="1">
          <mxGeometry width="50" height="50" relative="1" as="geometry">
            <mxPoint x="160" y="550" as="sourcePoint" />
            <mxPoint x="159.99761467889914" y="210" as="targetPoint" />
          </mxGeometry>
        </mxCell>
        <mxCell id="hcA8k_nIO9e3dmu71Pra-1" value="edit_profile(username, field, new_value)" style="endArrow=classic;html=1;rounded=0;" parent="1" edge="1">
          <mxGeometry width="50" height="50" relative="1" as="geometry">
            <mxPoint x="170" y="220" as="sourcePoint" />
            <mxPoint x="500" y="220" as="targetPoint" />
            <mxPoint as="offset" />
          </mxGeometry>
        </mxCell>
        <mxCell id="uk-uGxSs_R7LDQhaNyva-1" value="&amp;lt;profile_info, status&amp;gt;" style="endArrow=classic;html=1;rounded=0;dashed=1;" edge="1" parent="1">
          <mxGeometry width="50" height="50" relative="1" as="geometry">
            <mxPoint x="850" y="260" as="sourcePoint" />
            <mxPoint x="530" y="260" as="targetPoint" />
            <mxPoint as="offset" />
          </mxGeometry>
        </mxCell>
        <mxCell id="FKw7ZsQTV_vR5E7nbKCk-2" value="" style="endArrow=none;dashed=1;html=1;dashPattern=1 3;strokeWidth=2;rounded=0;exitX=1;exitY=0.5;exitDx=0;exitDy=0;" edge="1" parent="1">
          <mxGeometry width="50" height="50" relative="1" as="geometry">
            <mxPoint x="509.5" y="540" as="sourcePoint" />
            <mxPoint x="510" y="570" as="targetPoint" />
            <Array as="points" />
          </mxGeometry>
        </mxCell>
      </root>
    </mxGraphModel>
  </diagram>
  <diagram id="gdmV-hYK6NYpm4YrWsOA" name="Hide Profile Info">
    <mxGraphModel dx="233" dy="713" grid="1" gridSize="10" guides="1" tooltips="1" connect="1" arrows="1" fold="1" page="1" pageScale="1" pageWidth="827" pageHeight="1169" background="#ffffff" math="0" shadow="0">
      <root>
        <mxCell id="0" />
        <mxCell id="1" parent="0" />
        <mxCell id="9hb6SXYifB61dzSba8tt-1" value="Profile" style="rounded=0;whiteSpace=wrap;html=1;" vertex="1" parent="1">
          <mxGeometry x="1450.82" y="150" width="120" height="60" as="geometry" />
        </mxCell>
        <mxCell id="9hb6SXYifB61dzSba8tt-2" value="Database" style="shape=cylinder3;whiteSpace=wrap;html=1;boundedLbl=1;backgroundOutline=1;size=15;" vertex="1" parent="1">
          <mxGeometry x="1830.82" y="130" width="60" height="80" as="geometry" />
        </mxCell>
        <mxCell id="9hb6SXYifB61dzSba8tt-3" value="" style="endArrow=none;dashed=1;html=1;dashPattern=1 3;strokeWidth=2;rounded=0;entryX=0.5;entryY=1;entryDx=0;entryDy=0;" edge="1" parent="1" source="9hb6SXYifB61dzSba8tt-8" target="9hb6SXYifB61dzSba8tt-1">
          <mxGeometry width="50" height="50" relative="1" as="geometry">
            <mxPoint x="1510.82" y="1000.7999267578125" as="sourcePoint" />
            <mxPoint x="1510.32" y="220" as="targetPoint" />
          </mxGeometry>
        </mxCell>
        <mxCell id="9hb6SXYifB61dzSba8tt-4" value="" style="endArrow=none;dashed=1;html=1;dashPattern=1 3;strokeWidth=2;rounded=0;entryX=0.5;entryY=1;entryDx=0;entryDy=0;entryPerimeter=0;" edge="1" parent="1" source="9hb6SXYifB61dzSba8tt-9" target="9hb6SXYifB61dzSba8tt-2">
          <mxGeometry width="50" height="50" relative="1" as="geometry">
            <mxPoint x="1750.82" y="1001.5999755859375" as="sourcePoint" />
            <mxPoint x="1750.32" y="210" as="targetPoint" />
          </mxGeometry>
        </mxCell>
        <mxCell id="9hb6SXYifB61dzSba8tt-5" value="Member" style="shape=umlActor;verticalLabelPosition=bottom;verticalAlign=top;html=1;outlineConnect=0;" vertex="1" parent="1">
          <mxGeometry x="1090.82" y="210" width="30" height="60" as="geometry" />
        </mxCell>
        <mxCell id="9hb6SXYifB61dzSba8tt-8" value="" style="rounded=0;whiteSpace=wrap;html=1;direction=south;" vertex="1" parent="1">
          <mxGeometry x="1500.82" y="290" width="20" height="280" as="geometry" />
        </mxCell>
        <mxCell id="9hb6SXYifB61dzSba8tt-9" value="" style="rounded=0;whiteSpace=wrap;html=1;direction=south;" vertex="1" parent="1">
          <mxGeometry x="1855.82" y="300" width="10" height="50" as="geometry" />
        </mxCell>
        <mxCell id="9hb6SXYifB61dzSba8tt-10" value="" style="endArrow=none;dashed=1;html=1;dashPattern=1 3;strokeWidth=2;rounded=0;entryX=1;entryY=0.5;entryDx=0;entryDy=0;exitX=0.936;exitY=1.007;exitDx=0;exitDy=0;exitPerimeter=0;" edge="1" parent="1" source="9hb6SXYifB61dzSba8tt-12" target="9hb6SXYifB61dzSba8tt-9">
          <mxGeometry width="50" height="50" relative="1" as="geometry">
            <mxPoint x="1860.82" y="750" as="sourcePoint" />
            <mxPoint x="1750.32" y="370" as="targetPoint" />
          </mxGeometry>
        </mxCell>
        <mxCell id="9hb6SXYifB61dzSba8tt-11" value="profile_info" style="rounded=0;orthogonalLoop=1;jettySize=auto;html=1;dashed=1;entryX=0.098;entryY=0.278;entryDx=0;entryDy=0;entryPerimeter=0;exitX=0.487;exitY=0.243;exitDx=0;exitDy=0;exitPerimeter=0;" edge="1" parent="1" source="9hb6SXYifB61dzSba8tt-12">
          <mxGeometry relative="1" as="geometry">
            <mxPoint x="1500.82" y="446.64" as="sourcePoint" />
            <mxPoint x="1171.1799999999998" y="433.36000000000007" as="targetPoint" />
            <mxPoint as="offset" />
          </mxGeometry>
        </mxCell>
        <mxCell id="9hb6SXYifB61dzSba8tt-12" value="alt" style="shape=umlFrame;whiteSpace=wrap;html=1;pointerEvents=0;" vertex="1" parent="1">
          <mxGeometry x="1090.82" y="380" width="820" height="220" as="geometry" />
        </mxCell>
        <mxCell id="9hb6SXYifB61dzSba8tt-13" value="[status = 200]" style="text;html=1;strokeColor=none;fillColor=none;align=center;verticalAlign=middle;whiteSpace=wrap;rounded=0;" vertex="1" parent="1">
          <mxGeometry x="1170.82" y="390" width="80" height="30" as="geometry" />
        </mxCell>
        <mxCell id="9hb6SXYifB61dzSba8tt-14" value="" style="endArrow=none;dashed=1;html=1;dashPattern=1 3;strokeWidth=2;rounded=0;entryX=1;entryY=0.358;entryDx=0;entryDy=0;entryPerimeter=0;exitX=-0.001;exitY=0.358;exitDx=0;exitDy=0;exitPerimeter=0;" edge="1" parent="1" source="9hb6SXYifB61dzSba8tt-12" target="9hb6SXYifB61dzSba8tt-12">
          <mxGeometry width="50" height="50" relative="1" as="geometry">
            <mxPoint x="1290.82" y="587" as="sourcePoint" />
            <mxPoint x="1841.57" y="583" as="targetPoint" />
          </mxGeometry>
        </mxCell>
        <mxCell id="9hb6SXYifB61dzSba8tt-15" value="" style="endArrow=classic;html=1;rounded=0;dashed=1;entryX=0.098;entryY=0.682;entryDx=0;entryDy=0;entryPerimeter=0;exitX=0.487;exitY=0.682;exitDx=0;exitDy=0;exitPerimeter=0;" edge="1" parent="1" target="9hb6SXYifB61dzSba8tt-12" source="9hb6SXYifB61dzSba8tt-12">
          <mxGeometry width="50" height="50" relative="1" as="geometry">
            <mxPoint x="1495.82" y="540" as="sourcePoint" />
            <mxPoint x="1181.02" y="540.0500000000002" as="targetPoint" />
          </mxGeometry>
        </mxCell>
        <mxCell id="9hb6SXYifB61dzSba8tt-16" value="error_message" style="edgeLabel;html=1;align=center;verticalAlign=middle;resizable=0;points=[];" vertex="1" connectable="0" parent="9hb6SXYifB61dzSba8tt-15">
          <mxGeometry x="0.2286" y="1" relative="1" as="geometry">
            <mxPoint x="34" as="offset" />
          </mxGeometry>
        </mxCell>
        <mxCell id="9hb6SXYifB61dzSba8tt-17" value="[status not = 200]" style="text;html=1;strokeColor=none;fillColor=none;align=center;verticalAlign=middle;whiteSpace=wrap;rounded=0;" vertex="1" parent="1">
          <mxGeometry x="1170.82" y="480" width="110" height="30" as="geometry" />
        </mxCell>
        <mxCell id="9hb6SXYifB61dzSba8tt-18" value="" style="endArrow=none;dashed=1;html=1;rounded=0;strokeWidth=2;dashPattern=1 4;" edge="1" parent="1">
          <mxGeometry width="50" height="50" relative="1" as="geometry">
            <mxPoint x="1160" y="600" as="sourcePoint" />
            <mxPoint x="1160.8176146788992" y="290" as="targetPoint" />
          </mxGeometry>
        </mxCell>
        <mxCell id="9hb6SXYifB61dzSba8tt-20" value="&amp;lt;profile_info, status&amp;gt;" style="endArrow=classic;html=1;rounded=0;dashed=1;" edge="1" parent="1">
          <mxGeometry width="50" height="50" relative="1" as="geometry">
            <mxPoint x="1850.82" y="340" as="sourcePoint" />
            <mxPoint x="1530.82" y="340" as="targetPoint" />
            <mxPoint as="offset" />
          </mxGeometry>
        </mxCell>
        <mxCell id="9hb6SXYifB61dzSba8tt-21" value="" style="endArrow=none;dashed=1;html=1;dashPattern=1 3;strokeWidth=2;rounded=0;exitX=1;exitY=0.5;exitDx=0;exitDy=0;entryX=0.511;entryY=1.014;entryDx=0;entryDy=0;entryPerimeter=0;" edge="1" parent="1" source="9hb6SXYifB61dzSba8tt-8" target="9hb6SXYifB61dzSba8tt-12">
          <mxGeometry width="50" height="50" relative="1" as="geometry">
            <mxPoint x="1510.32" y="620" as="sourcePoint" />
            <mxPoint x="1540" y="620" as="targetPoint" />
            <Array as="points" />
          </mxGeometry>
        </mxCell>
        <mxCell id="9hb6SXYifB61dzSba8tt-22" value="hide_profile_info(username, field)" style="endArrow=classic;html=1;rounded=0;" edge="1" parent="1">
          <mxGeometry width="50" height="50" relative="1" as="geometry">
            <mxPoint x="1170.82" y="306" as="sourcePoint" />
            <mxPoint x="1500.82" y="306" as="targetPoint" />
            <mxPoint as="offset" />
          </mxGeometry>
        </mxCell>
        <mxCell id="9hb6SXYifB61dzSba8tt-24" value="update_profile(username, field, hidden)" style="endArrow=classic;html=1;rounded=0;" edge="1" parent="1">
          <mxGeometry width="50" height="50" relative="1" as="geometry">
            <mxPoint x="1535.82" y="310" as="sourcePoint" />
            <mxPoint x="1855.82" y="310" as="targetPoint" />
          </mxGeometry>
        </mxCell>
        <mxCell id="5cC9ZHzmPnipzd2hbWak-2" value="Profile" style="rounded=0;whiteSpace=wrap;html=1;" vertex="1" parent="1">
          <mxGeometry x="1451.6399999999999" y="670" width="120" height="60" as="geometry" />
        </mxCell>
        <mxCell id="5cC9ZHzmPnipzd2hbWak-3" value="Database" style="shape=cylinder3;whiteSpace=wrap;html=1;boundedLbl=1;backgroundOutline=1;size=15;" vertex="1" parent="1">
          <mxGeometry x="1810.82" y="650" width="60" height="80" as="geometry" />
        </mxCell>
        <mxCell id="5cC9ZHzmPnipzd2hbWak-4" value="" style="endArrow=none;dashed=1;html=1;dashPattern=1 3;strokeWidth=2;rounded=0;entryX=0.5;entryY=1;entryDx=0;entryDy=0;" edge="1" parent="1" source="5cC9ZHzmPnipzd2hbWak-7" target="5cC9ZHzmPnipzd2hbWak-2">
          <mxGeometry width="50" height="50" relative="1" as="geometry">
            <mxPoint x="1511.6399999999999" y="1520.7999267578125" as="sourcePoint" />
            <mxPoint x="1511.1399999999999" y="740" as="targetPoint" />
          </mxGeometry>
        </mxCell>
        <mxCell id="5cC9ZHzmPnipzd2hbWak-5" value="" style="endArrow=none;dashed=1;html=1;dashPattern=1 3;strokeWidth=2;rounded=0;entryX=0.5;entryY=1;entryDx=0;entryDy=0;entryPerimeter=0;" edge="1" parent="1" source="5cC9ZHzmPnipzd2hbWak-8">
          <mxGeometry width="50" height="50" relative="1" as="geometry">
            <mxPoint x="1751.6399999999999" y="1521.5999755859375" as="sourcePoint" />
            <mxPoint x="1861.6399999999996" y="730" as="targetPoint" />
          </mxGeometry>
        </mxCell>
        <mxCell id="5cC9ZHzmPnipzd2hbWak-6" value="Member" style="shape=umlActor;verticalLabelPosition=bottom;verticalAlign=top;html=1;outlineConnect=0;" vertex="1" parent="1">
          <mxGeometry x="1091.6399999999999" y="730" width="30" height="60" as="geometry" />
        </mxCell>
        <mxCell id="5cC9ZHzmPnipzd2hbWak-7" value="" style="rounded=0;whiteSpace=wrap;html=1;direction=south;" vertex="1" parent="1">
          <mxGeometry x="1501.6399999999999" y="810" width="20" height="280" as="geometry" />
        </mxCell>
        <mxCell id="5cC9ZHzmPnipzd2hbWak-8" value="" style="rounded=0;whiteSpace=wrap;html=1;direction=south;" vertex="1" parent="1">
          <mxGeometry x="1856.6399999999999" y="820" width="10" height="50" as="geometry" />
        </mxCell>
        <mxCell id="5cC9ZHzmPnipzd2hbWak-9" value="" style="endArrow=none;dashed=1;html=1;dashPattern=1 3;strokeWidth=2;rounded=0;entryX=1;entryY=0.5;entryDx=0;entryDy=0;exitX=0.936;exitY=1.007;exitDx=0;exitDy=0;exitPerimeter=0;" edge="1" parent="1" source="5cC9ZHzmPnipzd2hbWak-11" target="5cC9ZHzmPnipzd2hbWak-8">
          <mxGeometry width="50" height="50" relative="1" as="geometry">
            <mxPoint x="1861.6399999999999" y="1270" as="sourcePoint" />
            <mxPoint x="1751.1399999999999" y="890" as="targetPoint" />
          </mxGeometry>
        </mxCell>
        <mxCell id="5cC9ZHzmPnipzd2hbWak-10" value="profile_info" style="rounded=0;orthogonalLoop=1;jettySize=auto;html=1;dashed=1;entryX=0.098;entryY=0.278;entryDx=0;entryDy=0;entryPerimeter=0;exitX=0.487;exitY=0.243;exitDx=0;exitDy=0;exitPerimeter=0;" edge="1" parent="1" source="5cC9ZHzmPnipzd2hbWak-11">
          <mxGeometry relative="1" as="geometry">
            <mxPoint x="1501.6399999999999" y="966.64" as="sourcePoint" />
            <mxPoint x="1171.9999999999998" y="953.3600000000001" as="targetPoint" />
            <mxPoint as="offset" />
          </mxGeometry>
        </mxCell>
        <mxCell id="5cC9ZHzmPnipzd2hbWak-11" value="alt" style="shape=umlFrame;whiteSpace=wrap;html=1;pointerEvents=0;" vertex="1" parent="1">
          <mxGeometry x="1091.6399999999999" y="900" width="820" height="220" as="geometry" />
        </mxCell>
        <mxCell id="5cC9ZHzmPnipzd2hbWak-12" value="[status = 200]" style="text;html=1;strokeColor=none;fillColor=none;align=center;verticalAlign=middle;whiteSpace=wrap;rounded=0;" vertex="1" parent="1">
          <mxGeometry x="1171.6399999999999" y="910" width="80" height="30" as="geometry" />
        </mxCell>
        <mxCell id="5cC9ZHzmPnipzd2hbWak-13" value="" style="endArrow=none;dashed=1;html=1;dashPattern=1 3;strokeWidth=2;rounded=0;entryX=1;entryY=0.358;entryDx=0;entryDy=0;entryPerimeter=0;exitX=-0.001;exitY=0.358;exitDx=0;exitDy=0;exitPerimeter=0;" edge="1" parent="1" source="5cC9ZHzmPnipzd2hbWak-11" target="5cC9ZHzmPnipzd2hbWak-11">
          <mxGeometry width="50" height="50" relative="1" as="geometry">
            <mxPoint x="1291.6399999999999" y="1107" as="sourcePoint" />
            <mxPoint x="1842.3899999999999" y="1103" as="targetPoint" />
          </mxGeometry>
        </mxCell>
        <mxCell id="5cC9ZHzmPnipzd2hbWak-14" value="" style="endArrow=classic;html=1;rounded=0;dashed=1;entryX=0.098;entryY=0.682;entryDx=0;entryDy=0;entryPerimeter=0;exitX=0.487;exitY=0.682;exitDx=0;exitDy=0;exitPerimeter=0;" edge="1" parent="1" source="5cC9ZHzmPnipzd2hbWak-11" target="5cC9ZHzmPnipzd2hbWak-11">
          <mxGeometry width="50" height="50" relative="1" as="geometry">
            <mxPoint x="1496.6399999999999" y="1060" as="sourcePoint" />
            <mxPoint x="1181.84" y="1060.0500000000002" as="targetPoint" />
          </mxGeometry>
        </mxCell>
        <mxCell id="5cC9ZHzmPnipzd2hbWak-15" value="error_message" style="edgeLabel;html=1;align=center;verticalAlign=middle;resizable=0;points=[];" vertex="1" connectable="0" parent="5cC9ZHzmPnipzd2hbWak-14">
          <mxGeometry x="0.2286" y="1" relative="1" as="geometry">
            <mxPoint x="34" as="offset" />
          </mxGeometry>
        </mxCell>
        <mxCell id="5cC9ZHzmPnipzd2hbWak-16" value="[status not = 200]" style="text;html=1;strokeColor=none;fillColor=none;align=center;verticalAlign=middle;whiteSpace=wrap;rounded=0;" vertex="1" parent="1">
          <mxGeometry x="1171.6399999999999" y="1000" width="110" height="30" as="geometry" />
        </mxCell>
        <mxCell id="5cC9ZHzmPnipzd2hbWak-17" value="" style="endArrow=none;dashed=1;html=1;rounded=0;strokeWidth=2;dashPattern=1 4;" edge="1" parent="1">
          <mxGeometry width="50" height="50" relative="1" as="geometry">
            <mxPoint x="1160.82" y="1120" as="sourcePoint" />
            <mxPoint x="1161.6376146788991" y="810" as="targetPoint" />
          </mxGeometry>
        </mxCell>
        <mxCell id="5cC9ZHzmPnipzd2hbWak-18" value="&amp;lt;profile_info, status&amp;gt;" style="endArrow=classic;html=1;rounded=0;dashed=1;" edge="1" parent="1">
          <mxGeometry width="50" height="50" relative="1" as="geometry">
            <mxPoint x="1851.6399999999999" y="860" as="sourcePoint" />
            <mxPoint x="1531.6399999999999" y="860" as="targetPoint" />
            <mxPoint as="offset" />
          </mxGeometry>
        </mxCell>
        <mxCell id="5cC9ZHzmPnipzd2hbWak-19" value="" style="endArrow=none;dashed=1;html=1;dashPattern=1 3;strokeWidth=2;rounded=0;exitX=1;exitY=0.5;exitDx=0;exitDy=0;entryX=0.511;entryY=1.014;entryDx=0;entryDy=0;entryPerimeter=0;" edge="1" parent="1" source="5cC9ZHzmPnipzd2hbWak-7" target="5cC9ZHzmPnipzd2hbWak-11">
          <mxGeometry width="50" height="50" relative="1" as="geometry">
            <mxPoint x="1511.1399999999999" y="1140" as="sourcePoint" />
            <mxPoint x="1540.82" y="1140" as="targetPoint" />
            <Array as="points" />
          </mxGeometry>
        </mxCell>
        <mxCell id="5cC9ZHzmPnipzd2hbWak-22" value="reveal_profile_info(username, field)" style="endArrow=classic;html=1;rounded=0;" edge="1" parent="1">
          <mxGeometry width="50" height="50" relative="1" as="geometry">
            <mxPoint x="1170.82" y="820" as="sourcePoint" />
            <mxPoint x="1500.82" y="820" as="targetPoint" />
            <mxPoint as="offset" />
          </mxGeometry>
        </mxCell>
        <mxCell id="5cC9ZHzmPnipzd2hbWak-23" value="update_profile(username, field, revealed)" style="endArrow=classic;html=1;rounded=0;" edge="1" parent="1">
          <mxGeometry width="50" height="50" relative="1" as="geometry">
            <mxPoint x="1535.82" y="830" as="sourcePoint" />
            <mxPoint x="1855.82" y="830" as="targetPoint" />
            <mxPoint as="offset" />
          </mxGeometry>
        </mxCell>
      </root>
    </mxGraphModel>
  </diagram>
  <diagram id="6t3eJ7yfPqao17aWUgp2" name="Add Friend">
    <mxGraphModel dx="1272" dy="856" grid="1" gridSize="10" guides="1" tooltips="1" connect="1" arrows="1" fold="1" page="1" pageScale="1" pageWidth="827" pageHeight="1169" background="#ffffff" math="0" shadow="0">
      <root>
        <mxCell id="0" />
        <mxCell id="1" parent="0" />
        <mxCell id="BaX44e5tBS4yOTD1lfyA-23" value="&lt;span style=&quot;font-size: 12px;&quot;&gt;add_friend(username, friend_username)&lt;/span&gt;" style="rounded=0;orthogonalLoop=1;jettySize=auto;html=1;verticalAlign=middle;" parent="1" edge="1">
          <mxGeometry y="9" relative="1" as="geometry">
            <mxPoint x="90" y="231" as="sourcePoint" />
            <mxPoint x="300" y="231" as="targetPoint" />
            <mxPoint as="offset" />
          </mxGeometry>
        </mxCell>
        <mxCell id="BaX44e5tBS4yOTD1lfyA-30" value="Member" style="shape=umlActor;verticalLabelPosition=bottom;verticalAlign=top;html=1;outlineConnect=0;" parent="1" vertex="1">
          <mxGeometry x="70" y="70" width="30" height="60" as="geometry" />
        </mxCell>
        <mxCell id="BaX44e5tBS4yOTD1lfyA-31" value="Database" style="shape=cylinder3;whiteSpace=wrap;html=1;boundedLbl=1;backgroundOutline=1;size=15;" parent="1" vertex="1">
          <mxGeometry x="730" y="70" width="60" height="80" as="geometry" />
        </mxCell>
        <mxCell id="BaX44e5tBS4yOTD1lfyA-32" value="status" style="rounded=0;orthogonalLoop=1;jettySize=auto;html=1;dashed=1;fontStyle=1" parent="1" edge="1">
          <mxGeometry x="-0.0208" relative="1" as="geometry">
            <mxPoint x="330" y="279" as="targetPoint" />
            <mxPoint x="730" y="279" as="sourcePoint" />
            <mxPoint y="1" as="offset" />
          </mxGeometry>
        </mxCell>
        <mxCell id="BaX44e5tBS4yOTD1lfyA-33" value="" style="rounded=0;whiteSpace=wrap;html=1;rotation=-90;" parent="1" vertex="1">
          <mxGeometry x="720" y="255" width="80" height="20" as="geometry" />
        </mxCell>
        <mxCell id="BaX44e5tBS4yOTD1lfyA-34" value="" style="endArrow=none;dashed=1;html=1;dashPattern=1 3;strokeWidth=2;rounded=0;exitX=1;exitY=0.5;exitDx=0;exitDy=0;entryX=0.5;entryY=1;entryDx=0;entryDy=0;entryPerimeter=0;" parent="1" source="BaX44e5tBS4yOTD1lfyA-33" target="BaX44e5tBS4yOTD1lfyA-31" edge="1">
          <mxGeometry width="50" height="50" relative="1" as="geometry">
            <mxPoint x="711.64" y="220" as="sourcePoint" />
            <mxPoint x="761.64" y="170" as="targetPoint" />
          </mxGeometry>
        </mxCell>
        <mxCell id="BaX44e5tBS4yOTD1lfyA-35" value="" style="endArrow=none;dashed=1;html=1;dashPattern=1 3;strokeWidth=2;rounded=0;entryX=0;entryY=0.5;entryDx=0;entryDy=0;exitX=0.974;exitY=1;exitDx=0;exitDy=0;exitPerimeter=0;" parent="1" source="BaX44e5tBS4yOTD1lfyA-44" edge="1" target="BaX44e5tBS4yOTD1lfyA-33">
          <mxGeometry width="50" height="50" relative="1" as="geometry">
            <mxPoint x="1010" y="819" as="sourcePoint" />
            <mxPoint x="801" y="310" as="targetPoint" />
          </mxGeometry>
        </mxCell>
        <mxCell id="BaX44e5tBS4yOTD1lfyA-36" value="Profile" style="rounded=0;whiteSpace=wrap;html=1;" parent="1" vertex="1">
          <mxGeometry x="249" y="70" width="120" height="60" as="geometry" />
        </mxCell>
        <mxCell id="BaX44e5tBS4yOTD1lfyA-37" value="" style="endArrow=none;dashed=1;html=1;dashPattern=1 3;strokeWidth=2;rounded=0;entryX=0.5;entryY=1;entryDx=0;entryDy=0;exitX=0;exitY=0.5;exitDx=0;exitDy=0;" parent="1" source="BaX44e5tBS4yOTD1lfyA-49" target="BaX44e5tBS4yOTD1lfyA-36" edge="1">
          <mxGeometry width="50" height="50" relative="1" as="geometry">
            <mxPoint x="492.88" y="542.73" as="sourcePoint" />
            <mxPoint x="491.14" y="160" as="targetPoint" />
            <Array as="points" />
          </mxGeometry>
        </mxCell>
        <mxCell id="BaX44e5tBS4yOTD1lfyA-39" value="" style="endArrow=none;dashed=1;html=1;dashPattern=1 3;strokeWidth=2;rounded=0;exitX=0.097;exitY=0.933;exitDx=0;exitDy=0;exitPerimeter=0;" parent="1" source="BaX44e5tBS4yOTD1lfyA-44" edge="1">
          <mxGeometry width="50" height="50" relative="1" as="geometry">
            <mxPoint x="80.00476000000006" y="810.9200000000001" as="sourcePoint" />
            <mxPoint x="85.03999999999999" y="160.92" as="targetPoint" />
            <Array as="points">
              <mxPoint x="85.03999999999999" y="180" />
              <mxPoint x="85.03999999999999" y="160" />
            </Array>
          </mxGeometry>
        </mxCell>
        <mxCell id="BaX44e5tBS4yOTD1lfyA-41" value="[status = 200]" style="text;html=1;strokeColor=none;fillColor=none;align=center;verticalAlign=middle;whiteSpace=wrap;rounded=0;" parent="1" vertex="1">
          <mxGeometry x="80" y="340" width="120" height="30" as="geometry" />
        </mxCell>
        <mxCell id="BaX44e5tBS4yOTD1lfyA-44" value="alt" style="shape=umlFrame;whiteSpace=wrap;html=1;pointerEvents=0;" parent="1" vertex="1">
          <mxGeometry x="10" y="340" width="770" height="150" as="geometry" />
        </mxCell>
        <mxCell id="BaX44e5tBS4yOTD1lfyA-48" value="" style="endArrow=none;dashed=1;html=1;dashPattern=1 3;strokeWidth=2;rounded=0;entryX=1;entryY=0.5;entryDx=0;entryDy=0;exitX=0.388;exitY=0.933;exitDx=0;exitDy=0;exitPerimeter=0;" parent="1" source="BaX44e5tBS4yOTD1lfyA-44" target="BaX44e5tBS4yOTD1lfyA-49" edge="1">
          <mxGeometry width="50" height="50" relative="1" as="geometry">
            <mxPoint x="491.64" y="780" as="sourcePoint" />
            <mxPoint x="491.64" y="130" as="targetPoint" />
            <Array as="points" />
          </mxGeometry>
        </mxCell>
        <mxCell id="BaX44e5tBS4yOTD1lfyA-49" value="" style="rounded=0;whiteSpace=wrap;html=1;direction=south;" parent="1" vertex="1">
          <mxGeometry x="304" y="220" width="10" height="250" as="geometry" />
        </mxCell>
        <mxCell id="BaX44e5tBS4yOTD1lfyA-51" value="" style="endArrow=none;dashed=1;html=1;dashPattern=1 3;strokeWidth=2;rounded=0;exitX=-0.003;exitY=0.422;exitDx=0;exitDy=0;exitPerimeter=0;" parent="1" edge="1">
          <mxGeometry width="50" height="50" relative="1" as="geometry">
            <mxPoint x="7.6550800000002255" y="409.9999999999999" as="sourcePoint" />
            <mxPoint x="760" y="410" as="targetPoint" />
          </mxGeometry>
        </mxCell>
        <mxCell id="BaX44e5tBS4yOTD1lfyA-52" value="[status not = 200]" style="text;html=1;strokeColor=none;fillColor=none;align=center;verticalAlign=middle;whiteSpace=wrap;rounded=0;" parent="1" vertex="1">
          <mxGeometry x="80" y="410" width="140" height="30" as="geometry" />
        </mxCell>
        <mxCell id="BaX44e5tBS4yOTD1lfyA-53" value="" style="endArrow=classic;html=1;rounded=0;dashed=1;" parent="1" edge="1">
          <mxGeometry width="50" height="50" relative="1" as="geometry">
            <mxPoint x="290" y="460" as="sourcePoint" />
            <mxPoint x="100" y="460" as="targetPoint" />
          </mxGeometry>
        </mxCell>
        <mxCell id="BaX44e5tBS4yOTD1lfyA-54" value="error_message" style="edgeLabel;html=1;align=center;verticalAlign=middle;resizable=0;points=[];" parent="BaX44e5tBS4yOTD1lfyA-53" vertex="1" connectable="0">
          <mxGeometry x="0.2286" y="1" relative="1" as="geometry">
            <mxPoint x="25" y="-1" as="offset" />
          </mxGeometry>
        </mxCell>
        <mxCell id="lSLLkV1rAoa-VvLolmg8-6" value="&lt;span style=&quot;font-size: 12px;&quot;&gt;insert_friend_request(username, friend_username)&lt;/span&gt;" style="rounded=0;orthogonalLoop=1;jettySize=auto;html=1;" edge="1" parent="1">
          <mxGeometry x="0.0018" relative="1" as="geometry">
            <mxPoint x="740" y="250" as="targetPoint" />
            <mxPoint x="320" y="250" as="sourcePoint" />
            <mxPoint as="offset" />
          </mxGeometry>
        </mxCell>
        <mxCell id="6fNkHJMGbfw3OJXEhFNj-2" value="" style="endArrow=classic;html=1;rounded=0;dashed=1;" edge="1" parent="1">
          <mxGeometry width="50" height="50" relative="1" as="geometry">
            <mxPoint x="290" y="380" as="sourcePoint" />
            <mxPoint x="100" y="380" as="targetPoint" />
          </mxGeometry>
        </mxCell>
        <mxCell id="6fNkHJMGbfw3OJXEhFNj-3" value="success_message" style="edgeLabel;html=1;align=center;verticalAlign=middle;resizable=0;points=[];" vertex="1" connectable="0" parent="6fNkHJMGbfw3OJXEhFNj-2">
          <mxGeometry x="0.2286" y="1" relative="1" as="geometry">
            <mxPoint x="25" y="-1" as="offset" />
          </mxGeometry>
        </mxCell>
        <mxCell id="hGxTSKR1IFYc1mU9okMd-1" value="&lt;span style=&quot;font-size: 12px;&quot;&gt;get_friend_requests(username)&lt;/span&gt;" style="rounded=0;orthogonalLoop=1;jettySize=auto;html=1;verticalAlign=middle;" edge="1" parent="1">
          <mxGeometry y="9" relative="1" as="geometry">
            <mxPoint x="100" y="730" as="sourcePoint" />
            <mxPoint x="412.34" y="731" as="targetPoint" />
            <mxPoint as="offset" />
          </mxGeometry>
        </mxCell>
        <mxCell id="hGxTSKR1IFYc1mU9okMd-2" value="Member" style="shape=umlActor;verticalLabelPosition=bottom;verticalAlign=top;html=1;outlineConnect=0;" vertex="1" parent="1">
          <mxGeometry x="60" y="580" width="30" height="60" as="geometry" />
        </mxCell>
        <mxCell id="hGxTSKR1IFYc1mU9okMd-3" value="Database" style="shape=cylinder3;whiteSpace=wrap;html=1;boundedLbl=1;backgroundOutline=1;size=15;" vertex="1" parent="1">
          <mxGeometry x="842.34" y="570" width="60" height="80" as="geometry" />
        </mxCell>
        <mxCell id="hGxTSKR1IFYc1mU9okMd-4" value="&amp;lt;friend_requests, status&amp;gt;" style="rounded=0;orthogonalLoop=1;jettySize=auto;html=1;dashed=1;fontStyle=1" edge="1" parent="1">
          <mxGeometry x="-0.0222" y="1" relative="1" as="geometry">
            <mxPoint x="442.34" y="779" as="targetPoint" />
            <mxPoint x="842.34" y="779" as="sourcePoint" />
            <mxPoint as="offset" />
          </mxGeometry>
        </mxCell>
        <mxCell id="hGxTSKR1IFYc1mU9okMd-5" value="" style="rounded=0;whiteSpace=wrap;html=1;rotation=-90;" vertex="1" parent="1">
          <mxGeometry x="832.34" y="755" width="80" height="20" as="geometry" />
        </mxCell>
        <mxCell id="hGxTSKR1IFYc1mU9okMd-6" value="" style="endArrow=none;dashed=1;html=1;dashPattern=1 3;strokeWidth=2;rounded=0;exitX=1;exitY=0.5;exitDx=0;exitDy=0;entryX=0.5;entryY=1;entryDx=0;entryDy=0;entryPerimeter=0;" edge="1" parent="1" source="hGxTSKR1IFYc1mU9okMd-5" target="hGxTSKR1IFYc1mU9okMd-3">
          <mxGeometry width="50" height="50" relative="1" as="geometry">
            <mxPoint x="823.98" y="720" as="sourcePoint" />
            <mxPoint x="873.98" y="670" as="targetPoint" />
          </mxGeometry>
        </mxCell>
        <mxCell id="hGxTSKR1IFYc1mU9okMd-7" value="" style="endArrow=none;dashed=1;html=1;dashPattern=1 3;strokeWidth=2;rounded=0;entryX=0;entryY=0.5;entryDx=0;entryDy=0;exitX=0.976;exitY=0.964;exitDx=0;exitDy=0;exitPerimeter=0;" edge="1" parent="1" source="hGxTSKR1IFYc1mU9okMd-25" target="hGxTSKR1IFYc1mU9okMd-5">
          <mxGeometry width="50" height="50" relative="1" as="geometry">
            <mxPoint x="869" y="1140" as="sourcePoint" />
            <mxPoint x="913.34" y="810" as="targetPoint" />
          </mxGeometry>
        </mxCell>
        <mxCell id="hGxTSKR1IFYc1mU9okMd-8" value="Profile" style="rounded=0;whiteSpace=wrap;html=1;" vertex="1" parent="1">
          <mxGeometry x="361.34" y="580" width="120" height="60" as="geometry" />
        </mxCell>
        <mxCell id="hGxTSKR1IFYc1mU9okMd-9" value="" style="endArrow=none;dashed=1;html=1;dashPattern=1 3;strokeWidth=2;rounded=0;entryX=0.5;entryY=1;entryDx=0;entryDy=0;exitX=0;exitY=0.5;exitDx=0;exitDy=0;" edge="1" parent="1" source="hGxTSKR1IFYc1mU9okMd-14" target="hGxTSKR1IFYc1mU9okMd-8">
          <mxGeometry width="50" height="50" relative="1" as="geometry">
            <mxPoint x="605.22" y="1042.73" as="sourcePoint" />
            <mxPoint x="603.48" y="660" as="targetPoint" />
            <Array as="points" />
          </mxGeometry>
        </mxCell>
        <mxCell id="hGxTSKR1IFYc1mU9okMd-10" value="" style="endArrow=none;dashed=1;html=1;dashPattern=1 3;strokeWidth=2;rounded=0;exitX=0.082;exitY=0.96;exitDx=0;exitDy=0;exitPerimeter=0;" edge="1" parent="1" source="hGxTSKR1IFYc1mU9okMd-25">
          <mxGeometry width="50" height="50" relative="1" as="geometry">
            <mxPoint x="80" y="1130" as="sourcePoint" />
            <mxPoint x="80.35" y="660.92" as="targetPoint" />
            <Array as="points">
              <mxPoint x="80.35" y="680" />
              <mxPoint x="80.35" y="660" />
            </Array>
          </mxGeometry>
        </mxCell>
        <mxCell id="hGxTSKR1IFYc1mU9okMd-11" value="[status = 200]" style="text;html=1;strokeColor=none;fillColor=none;align=center;verticalAlign=middle;whiteSpace=wrap;rounded=0;" vertex="1" parent="1">
          <mxGeometry x="70" y="820" width="120" height="30" as="geometry" />
        </mxCell>
        <mxCell id="hGxTSKR1IFYc1mU9okMd-12" value="alt" style="shape=umlFrame;whiteSpace=wrap;html=1;pointerEvents=0;" vertex="1" parent="1">
          <mxGeometry x="7.66" y="820" width="882.34" height="150" as="geometry" />
        </mxCell>
        <mxCell id="hGxTSKR1IFYc1mU9okMd-14" value="" style="rounded=0;whiteSpace=wrap;html=1;direction=south;" vertex="1" parent="1">
          <mxGeometry x="416.34" y="720" width="10" height="230" as="geometry" />
        </mxCell>
        <mxCell id="hGxTSKR1IFYc1mU9okMd-15" value="" style="endArrow=none;dashed=1;html=1;dashPattern=1 3;strokeWidth=2;rounded=0;exitX=0.012;exitY=0.467;exitDx=0;exitDy=0;exitPerimeter=0;" edge="1" parent="1" source="hGxTSKR1IFYc1mU9okMd-12">
          <mxGeometry width="50" height="50" relative="1" as="geometry">
            <mxPoint x="117.65508000000023" y="889.9999999999999" as="sourcePoint" />
            <mxPoint x="870" y="890" as="targetPoint" />
          </mxGeometry>
        </mxCell>
        <mxCell id="hGxTSKR1IFYc1mU9okMd-16" value="[status not = 200]" style="text;html=1;strokeColor=none;fillColor=none;align=center;verticalAlign=middle;whiteSpace=wrap;rounded=0;" vertex="1" parent="1">
          <mxGeometry x="70" y="890" width="140" height="30" as="geometry" />
        </mxCell>
        <mxCell id="hGxTSKR1IFYc1mU9okMd-17" value="" style="endArrow=classic;html=1;rounded=0;dashed=1;entryX=0.093;entryY=0.8;entryDx=0;entryDy=0;entryPerimeter=0;exitX=0.456;exitY=0.8;exitDx=0;exitDy=0;exitPerimeter=0;" edge="1" parent="1" source="hGxTSKR1IFYc1mU9okMd-12" target="hGxTSKR1IFYc1mU9okMd-12">
          <mxGeometry width="50" height="50" relative="1" as="geometry">
            <mxPoint x="400" y="940" as="sourcePoint" />
            <mxPoint x="210" y="940" as="targetPoint" />
          </mxGeometry>
        </mxCell>
        <mxCell id="hGxTSKR1IFYc1mU9okMd-18" value="error_message" style="edgeLabel;html=1;align=center;verticalAlign=middle;resizable=0;points=[];" vertex="1" connectable="0" parent="hGxTSKR1IFYc1mU9okMd-17">
          <mxGeometry x="0.2286" y="1" relative="1" as="geometry">
            <mxPoint x="25" y="-1" as="offset" />
          </mxGeometry>
        </mxCell>
        <mxCell id="hGxTSKR1IFYc1mU9okMd-19" value="&lt;span style=&quot;font-size: 12px;&quot;&gt;get_friend_requests(username)&lt;/span&gt;" style="rounded=0;orthogonalLoop=1;jettySize=auto;html=1;" edge="1" parent="1">
          <mxGeometry relative="1" as="geometry">
            <mxPoint x="852.34" y="750" as="targetPoint" />
            <mxPoint x="432.34" y="750" as="sourcePoint" />
            <mxPoint as="offset" />
          </mxGeometry>
        </mxCell>
        <mxCell id="hGxTSKR1IFYc1mU9okMd-20" value="" style="endArrow=classic;html=1;rounded=0;dashed=1;entryX=0.093;entryY=0.267;entryDx=0;entryDy=0;entryPerimeter=0;exitX=0.456;exitY=0.267;exitDx=0;exitDy=0;exitPerimeter=0;" edge="1" parent="1" source="hGxTSKR1IFYc1mU9okMd-12" target="hGxTSKR1IFYc1mU9okMd-12">
          <mxGeometry width="50" height="50" relative="1" as="geometry">
            <mxPoint x="400" y="860" as="sourcePoint" />
            <mxPoint x="210" y="860" as="targetPoint" />
          </mxGeometry>
        </mxCell>
        <mxCell id="hGxTSKR1IFYc1mU9okMd-21" value="friend_requests" style="edgeLabel;html=1;align=center;verticalAlign=middle;resizable=0;points=[];" vertex="1" connectable="0" parent="hGxTSKR1IFYc1mU9okMd-20">
          <mxGeometry x="0.2286" y="1" relative="1" as="geometry">
            <mxPoint x="25" y="-1" as="offset" />
          </mxGeometry>
        </mxCell>
        <mxCell id="hGxTSKR1IFYc1mU9okMd-22" value="&lt;span style=&quot;font-size: 12px;&quot;&gt;answer_friend_request(username, friend_username, answer)&lt;/span&gt;" style="rounded=0;orthogonalLoop=1;jettySize=auto;html=1;verticalAlign=middle;" edge="1" parent="1">
          <mxGeometry x="0.0043" y="9" relative="1" as="geometry">
            <mxPoint x="90" y="1030" as="sourcePoint" />
            <mxPoint x="410" y="1030" as="targetPoint" />
            <mxPoint as="offset" />
          </mxGeometry>
        </mxCell>
        <mxCell id="hGxTSKR1IFYc1mU9okMd-23" value="" style="endArrow=none;dashed=1;html=1;dashPattern=1 3;strokeWidth=2;rounded=0;entryX=0.5;entryY=1;entryDx=0;entryDy=0;" edge="1" parent="1">
          <mxGeometry width="50" height="50" relative="1" as="geometry">
            <mxPoint x="420.78" y="1020" as="sourcePoint" />
            <mxPoint x="421.55999999999995" y="970" as="targetPoint" />
            <Array as="points" />
          </mxGeometry>
        </mxCell>
        <mxCell id="hGxTSKR1IFYc1mU9okMd-24" value="" style="rounded=0;whiteSpace=wrap;html=1;direction=south;" vertex="1" parent="1">
          <mxGeometry x="416.34" y="1020" width="10" height="520" as="geometry" />
        </mxCell>
        <mxCell id="hGxTSKR1IFYc1mU9okMd-25" value="alt" style="shape=umlFrame;whiteSpace=wrap;html=1;pointerEvents=0;" vertex="1" parent="1">
          <mxGeometry x="7.66" y="1040" width="882.34" height="550" as="geometry" />
        </mxCell>
        <mxCell id="hGxTSKR1IFYc1mU9okMd-26" value="[answer = accept]" style="text;html=1;strokeColor=none;fillColor=none;align=center;verticalAlign=middle;whiteSpace=wrap;rounded=0;" vertex="1" parent="1">
          <mxGeometry x="424" y="1040" width="120" height="30" as="geometry" />
        </mxCell>
        <mxCell id="hGxTSKR1IFYc1mU9okMd-27" value="&lt;span style=&quot;font-size: 12px;&quot;&gt;insert_friend(username, friend_username)&lt;/span&gt;" style="rounded=0;orthogonalLoop=1;jettySize=auto;html=1;" edge="1" parent="1">
          <mxGeometry relative="1" as="geometry">
            <mxPoint x="862.34" y="1070" as="targetPoint" />
            <mxPoint x="442.34" y="1070" as="sourcePoint" />
            <mxPoint as="offset" />
          </mxGeometry>
        </mxCell>
        <mxCell id="hGxTSKR1IFYc1mU9okMd-28" value="&amp;lt;status&amp;gt;" style="rounded=0;orthogonalLoop=1;jettySize=auto;html=1;dashed=1;fontStyle=1;entryX=0.49;entryY=0.333;entryDx=0;entryDy=0;entryPerimeter=0;exitX=0.966;exitY=0.333;exitDx=0;exitDy=0;exitPerimeter=0;" edge="1" parent="1">
          <mxGeometry x="-0.0222" y="1" relative="1" as="geometry">
            <mxPoint x="440.00659999999993" y="1099.9999999999998" as="targetPoint" />
            <mxPoint x="860.00044" y="1099.9999999999998" as="sourcePoint" />
            <mxPoint as="offset" />
          </mxGeometry>
        </mxCell>
        <mxCell id="hGxTSKR1IFYc1mU9okMd-29" value="alt" style="shape=umlFrame;whiteSpace=wrap;html=1;pointerEvents=0;" vertex="1" parent="1">
          <mxGeometry x="17.66" y="1120" width="872.34" height="150" as="geometry" />
        </mxCell>
        <mxCell id="hGxTSKR1IFYc1mU9okMd-30" value="" style="endArrow=none;dashed=1;html=1;dashPattern=1 3;strokeWidth=2;rounded=0;exitX=0.012;exitY=0.467;exitDx=0;exitDy=0;exitPerimeter=0;" edge="1" parent="1">
          <mxGeometry width="50" height="50" relative="1" as="geometry">
            <mxPoint x="17.66" y="1310" as="sourcePoint" />
            <mxPoint x="869.66" y="1310" as="targetPoint" />
          </mxGeometry>
        </mxCell>
        <mxCell id="hGxTSKR1IFYc1mU9okMd-31" value="" style="endArrow=none;dashed=1;html=1;dashPattern=1 3;strokeWidth=2;rounded=0;exitX=0.012;exitY=0.467;exitDx=0;exitDy=0;exitPerimeter=0;" edge="1" parent="1">
          <mxGeometry width="50" height="50" relative="1" as="geometry">
            <mxPoint x="17.66" y="1200" as="sourcePoint" />
            <mxPoint x="869.66" y="1200" as="targetPoint" />
          </mxGeometry>
        </mxCell>
        <mxCell id="hGxTSKR1IFYc1mU9okMd-32" value="[status = 200]" style="text;html=1;strokeColor=none;fillColor=none;align=center;verticalAlign=middle;whiteSpace=wrap;rounded=0;" vertex="1" parent="1">
          <mxGeometry x="80" y="1120" width="120" height="30" as="geometry" />
        </mxCell>
        <mxCell id="hGxTSKR1IFYc1mU9okMd-35" value="[status != 200]" style="text;html=1;strokeColor=none;fillColor=none;align=center;verticalAlign=middle;whiteSpace=wrap;rounded=0;" vertex="1" parent="1">
          <mxGeometry x="80" y="1200" width="120" height="30" as="geometry" />
        </mxCell>
        <mxCell id="hGxTSKR1IFYc1mU9okMd-36" value="" style="endArrow=classic;html=1;rounded=0;dashed=1;entryX=0.093;entryY=0.267;entryDx=0;entryDy=0;entryPerimeter=0;exitX=0.456;exitY=0.267;exitDx=0;exitDy=0;exitPerimeter=0;" edge="1" parent="1">
          <mxGeometry width="50" height="50" relative="1" as="geometry">
            <mxPoint x="416.34" y="1168" as="sourcePoint" />
            <mxPoint x="96.34" y="1168" as="targetPoint" />
          </mxGeometry>
        </mxCell>
        <mxCell id="hGxTSKR1IFYc1mU9okMd-37" value="success_message" style="edgeLabel;html=1;align=center;verticalAlign=middle;resizable=0;points=[];" vertex="1" connectable="0" parent="hGxTSKR1IFYc1mU9okMd-36">
          <mxGeometry x="0.2286" y="1" relative="1" as="geometry">
            <mxPoint x="25" y="-1" as="offset" />
          </mxGeometry>
        </mxCell>
        <mxCell id="hGxTSKR1IFYc1mU9okMd-38" value="" style="endArrow=classic;html=1;rounded=0;dashed=1;entryX=0.093;entryY=0.267;entryDx=0;entryDy=0;entryPerimeter=0;exitX=0.456;exitY=0.267;exitDx=0;exitDy=0;exitPerimeter=0;" edge="1" parent="1">
          <mxGeometry width="50" height="50" relative="1" as="geometry">
            <mxPoint x="416.34" y="1240" as="sourcePoint" />
            <mxPoint x="96.34" y="1240" as="targetPoint" />
          </mxGeometry>
        </mxCell>
        <mxCell id="hGxTSKR1IFYc1mU9okMd-39" value="error_message" style="edgeLabel;html=1;align=center;verticalAlign=middle;resizable=0;points=[];" vertex="1" connectable="0" parent="hGxTSKR1IFYc1mU9okMd-38">
          <mxGeometry x="0.2286" y="1" relative="1" as="geometry">
            <mxPoint x="25" y="-1" as="offset" />
          </mxGeometry>
        </mxCell>
        <mxCell id="hGxTSKR1IFYc1mU9okMd-40" value="[answer = reject]" style="text;html=1;strokeColor=none;fillColor=none;align=center;verticalAlign=middle;whiteSpace=wrap;rounded=0;" vertex="1" parent="1">
          <mxGeometry x="424" y="1320" width="120" height="30" as="geometry" />
        </mxCell>
        <mxCell id="hGxTSKR1IFYc1mU9okMd-41" value="&lt;span style=&quot;font-size: 12px;&quot;&gt;delete_friend_request(username, friend_username)&lt;/span&gt;" style="rounded=0;orthogonalLoop=1;jettySize=auto;html=1;" edge="1" parent="1">
          <mxGeometry relative="1" as="geometry">
            <mxPoint x="860" y="1360" as="targetPoint" />
            <mxPoint x="440" y="1360" as="sourcePoint" />
            <mxPoint as="offset" />
          </mxGeometry>
        </mxCell>
        <mxCell id="hGxTSKR1IFYc1mU9okMd-42" value="&amp;lt;status&amp;gt;" style="rounded=0;orthogonalLoop=1;jettySize=auto;html=1;dashed=1;fontStyle=1;exitX=0.966;exitY=0.333;exitDx=0;exitDy=0;exitPerimeter=0;" edge="1" parent="1">
          <mxGeometry x="-0.0222" y="1" relative="1" as="geometry">
            <mxPoint x="440" y="1390" as="targetPoint" />
            <mxPoint x="870.00044" y="1389.9999999999998" as="sourcePoint" />
            <mxPoint as="offset" />
          </mxGeometry>
        </mxCell>
        <mxCell id="hGxTSKR1IFYc1mU9okMd-43" value="alt" style="shape=umlFrame;whiteSpace=wrap;html=1;pointerEvents=0;" vertex="1" parent="1">
          <mxGeometry x="17.66" y="1410" width="872.34" height="150" as="geometry" />
        </mxCell>
        <mxCell id="hGxTSKR1IFYc1mU9okMd-44" value="" style="endArrow=none;dashed=1;html=1;dashPattern=1 3;strokeWidth=2;rounded=0;exitX=0.012;exitY=0.467;exitDx=0;exitDy=0;exitPerimeter=0;" edge="1" parent="1">
          <mxGeometry width="50" height="50" relative="1" as="geometry">
            <mxPoint x="17.66" y="1490" as="sourcePoint" />
            <mxPoint x="869.66" y="1490" as="targetPoint" />
          </mxGeometry>
        </mxCell>
        <mxCell id="hGxTSKR1IFYc1mU9okMd-45" value="[status = 200]" style="text;html=1;strokeColor=none;fillColor=none;align=center;verticalAlign=middle;whiteSpace=wrap;rounded=0;" vertex="1" parent="1">
          <mxGeometry x="80" y="1410" width="120" height="30" as="geometry" />
        </mxCell>
        <mxCell id="hGxTSKR1IFYc1mU9okMd-46" value="" style="endArrow=classic;html=1;rounded=0;dashed=1;entryX=0.093;entryY=0.267;entryDx=0;entryDy=0;entryPerimeter=0;exitX=0.456;exitY=0.267;exitDx=0;exitDy=0;exitPerimeter=0;" edge="1" parent="1">
          <mxGeometry width="50" height="50" relative="1" as="geometry">
            <mxPoint x="416.34" y="1458" as="sourcePoint" />
            <mxPoint x="96.34" y="1458" as="targetPoint" />
          </mxGeometry>
        </mxCell>
        <mxCell id="hGxTSKR1IFYc1mU9okMd-47" value="success_message" style="edgeLabel;html=1;align=center;verticalAlign=middle;resizable=0;points=[];" vertex="1" connectable="0" parent="hGxTSKR1IFYc1mU9okMd-46">
          <mxGeometry x="0.2286" y="1" relative="1" as="geometry">
            <mxPoint x="25" y="-1" as="offset" />
          </mxGeometry>
        </mxCell>
        <mxCell id="hGxTSKR1IFYc1mU9okMd-48" value="" style="endArrow=classic;html=1;rounded=0;dashed=1;entryX=0.093;entryY=0.267;entryDx=0;entryDy=0;entryPerimeter=0;exitX=0.456;exitY=0.267;exitDx=0;exitDy=0;exitPerimeter=0;" edge="1" parent="1">
          <mxGeometry width="50" height="50" relative="1" as="geometry">
            <mxPoint x="416.34" y="1530" as="sourcePoint" />
            <mxPoint x="96.34" y="1530" as="targetPoint" />
          </mxGeometry>
        </mxCell>
        <mxCell id="hGxTSKR1IFYc1mU9okMd-49" value="error_message" style="edgeLabel;html=1;align=center;verticalAlign=middle;resizable=0;points=[];" vertex="1" connectable="0" parent="hGxTSKR1IFYc1mU9okMd-48">
          <mxGeometry x="0.2286" y="1" relative="1" as="geometry">
            <mxPoint x="25" y="-1" as="offset" />
          </mxGeometry>
        </mxCell>
        <mxCell id="hGxTSKR1IFYc1mU9okMd-50" value="[status != 200]" style="text;html=1;strokeColor=none;fillColor=none;align=center;verticalAlign=middle;whiteSpace=wrap;rounded=0;" vertex="1" parent="1">
          <mxGeometry x="80" y="1490" width="120" height="30" as="geometry" />
        </mxCell>
        <mxCell id="hGxTSKR1IFYc1mU9okMd-51" value="&lt;span style=&quot;font-size: 12px;&quot;&gt;remove_friend(username, friend_username)&lt;/span&gt;" style="rounded=0;orthogonalLoop=1;jettySize=auto;html=1;verticalAlign=middle;" edge="1" parent="1">
          <mxGeometry x="0.0032" y="9" relative="1" as="geometry">
            <mxPoint x="90" y="1821" as="sourcePoint" />
            <mxPoint x="320" y="1821" as="targetPoint" />
            <mxPoint as="offset" />
          </mxGeometry>
        </mxCell>
        <mxCell id="hGxTSKR1IFYc1mU9okMd-52" value="Member" style="shape=umlActor;verticalLabelPosition=bottom;verticalAlign=top;html=1;outlineConnect=0;" vertex="1" parent="1">
          <mxGeometry x="70" y="1660" width="30" height="60" as="geometry" />
        </mxCell>
        <mxCell id="hGxTSKR1IFYc1mU9okMd-53" value="Database" style="shape=cylinder3;whiteSpace=wrap;html=1;boundedLbl=1;backgroundOutline=1;size=15;" vertex="1" parent="1">
          <mxGeometry x="730.0000000000001" y="1660" width="60" height="80" as="geometry" />
        </mxCell>
        <mxCell id="hGxTSKR1IFYc1mU9okMd-54" value="status" style="rounded=0;orthogonalLoop=1;jettySize=auto;html=1;dashed=1;fontStyle=1" edge="1" parent="1">
          <mxGeometry x="-0.0208" relative="1" as="geometry">
            <mxPoint x="350" y="1869" as="targetPoint" />
            <mxPoint x="730.0000000000001" y="1869" as="sourcePoint" />
            <mxPoint y="1" as="offset" />
          </mxGeometry>
        </mxCell>
        <mxCell id="hGxTSKR1IFYc1mU9okMd-55" value="" style="rounded=0;whiteSpace=wrap;html=1;rotation=-90;" vertex="1" parent="1">
          <mxGeometry x="720.0000000000001" y="1845" width="80" height="20" as="geometry" />
        </mxCell>
        <mxCell id="hGxTSKR1IFYc1mU9okMd-56" value="" style="endArrow=none;dashed=1;html=1;dashPattern=1 3;strokeWidth=2;rounded=0;exitX=1;exitY=0.5;exitDx=0;exitDy=0;entryX=0.5;entryY=1;entryDx=0;entryDy=0;entryPerimeter=0;" edge="1" parent="1" source="hGxTSKR1IFYc1mU9okMd-55" target="hGxTSKR1IFYc1mU9okMd-53">
          <mxGeometry width="50" height="50" relative="1" as="geometry">
            <mxPoint x="711.64" y="1810" as="sourcePoint" />
            <mxPoint x="761.64" y="1760" as="targetPoint" />
          </mxGeometry>
        </mxCell>
        <mxCell id="hGxTSKR1IFYc1mU9okMd-57" value="" style="endArrow=none;dashed=1;html=1;dashPattern=1 3;strokeWidth=2;rounded=0;entryX=0;entryY=0.5;entryDx=0;entryDy=0;exitX=0.974;exitY=1;exitDx=0;exitDy=0;exitPerimeter=0;" edge="1" parent="1" source="hGxTSKR1IFYc1mU9okMd-62" target="hGxTSKR1IFYc1mU9okMd-55">
          <mxGeometry width="50" height="50" relative="1" as="geometry">
            <mxPoint x="1010.0000000000001" y="2409" as="sourcePoint" />
            <mxPoint x="801.0000000000001" y="1900" as="targetPoint" />
          </mxGeometry>
        </mxCell>
        <mxCell id="hGxTSKR1IFYc1mU9okMd-58" value="Profile" style="rounded=0;whiteSpace=wrap;html=1;" vertex="1" parent="1">
          <mxGeometry x="275" y="1660" width="120" height="60" as="geometry" />
        </mxCell>
        <mxCell id="hGxTSKR1IFYc1mU9okMd-59" value="" style="endArrow=none;dashed=1;html=1;dashPattern=1 3;strokeWidth=2;rounded=0;entryX=0.5;entryY=1;entryDx=0;entryDy=0;exitX=0;exitY=0.5;exitDx=0;exitDy=0;" edge="1" parent="1" source="hGxTSKR1IFYc1mU9okMd-64" target="hGxTSKR1IFYc1mU9okMd-58">
          <mxGeometry width="50" height="50" relative="1" as="geometry">
            <mxPoint x="492.88" y="2132.73" as="sourcePoint" />
            <mxPoint x="491.14" y="1750" as="targetPoint" />
            <Array as="points" />
          </mxGeometry>
        </mxCell>
        <mxCell id="hGxTSKR1IFYc1mU9okMd-60" value="" style="endArrow=none;dashed=1;html=1;dashPattern=1 3;strokeWidth=2;rounded=0;exitX=0.097;exitY=0.933;exitDx=0;exitDy=0;exitPerimeter=0;" edge="1" parent="1" source="hGxTSKR1IFYc1mU9okMd-62">
          <mxGeometry width="50" height="50" relative="1" as="geometry">
            <mxPoint x="80.00476000000003" y="2400.92" as="sourcePoint" />
            <mxPoint x="85.03999999999996" y="1750.92" as="targetPoint" />
            <Array as="points">
              <mxPoint x="85.03999999999996" y="1770" />
              <mxPoint x="85.03999999999996" y="1750" />
            </Array>
          </mxGeometry>
        </mxCell>
        <mxCell id="hGxTSKR1IFYc1mU9okMd-61" value="[status = 200]" style="text;html=1;strokeColor=none;fillColor=none;align=center;verticalAlign=middle;whiteSpace=wrap;rounded=0;" vertex="1" parent="1">
          <mxGeometry x="80" y="1930" width="120" height="30" as="geometry" />
        </mxCell>
        <mxCell id="hGxTSKR1IFYc1mU9okMd-62" value="alt" style="shape=umlFrame;whiteSpace=wrap;html=1;pointerEvents=0;" vertex="1" parent="1">
          <mxGeometry x="10" y="1930" width="770" height="150" as="geometry" />
        </mxCell>
        <mxCell id="hGxTSKR1IFYc1mU9okMd-63" value="" style="endArrow=none;dashed=1;html=1;dashPattern=1 3;strokeWidth=2;rounded=0;entryX=1;entryY=0.5;entryDx=0;entryDy=0;exitX=0.422;exitY=1;exitDx=0;exitDy=0;exitPerimeter=0;" edge="1" parent="1" source="hGxTSKR1IFYc1mU9okMd-62" target="hGxTSKR1IFYc1mU9okMd-64">
          <mxGeometry width="50" height="50" relative="1" as="geometry">
            <mxPoint x="491.64" y="2370" as="sourcePoint" />
            <mxPoint x="491.64" y="1720" as="targetPoint" />
            <Array as="points" />
          </mxGeometry>
        </mxCell>
        <mxCell id="hGxTSKR1IFYc1mU9okMd-65" value="" style="endArrow=none;dashed=1;html=1;dashPattern=1 3;strokeWidth=2;rounded=0;exitX=-0.003;exitY=0.422;exitDx=0;exitDy=0;exitPerimeter=0;" edge="1" parent="1">
          <mxGeometry width="50" height="50" relative="1" as="geometry">
            <mxPoint x="7.6550800000002255" y="2000" as="sourcePoint" />
            <mxPoint x="760.0000000000001" y="2000" as="targetPoint" />
          </mxGeometry>
        </mxCell>
        <mxCell id="hGxTSKR1IFYc1mU9okMd-66" value="[status not = 200]" style="text;html=1;strokeColor=none;fillColor=none;align=center;verticalAlign=middle;whiteSpace=wrap;rounded=0;" vertex="1" parent="1">
          <mxGeometry x="80" y="2000" width="140" height="30" as="geometry" />
        </mxCell>
        <mxCell id="hGxTSKR1IFYc1mU9okMd-67" value="" style="endArrow=classic;html=1;rounded=0;dashed=1;exitX=0.403;exitY=0.8;exitDx=0;exitDy=0;exitPerimeter=0;" edge="1" parent="1" source="hGxTSKR1IFYc1mU9okMd-62">
          <mxGeometry width="50" height="50" relative="1" as="geometry">
            <mxPoint x="290" y="2050" as="sourcePoint" />
            <mxPoint x="100" y="2050" as="targetPoint" />
          </mxGeometry>
        </mxCell>
        <mxCell id="hGxTSKR1IFYc1mU9okMd-68" value="error_message" style="edgeLabel;html=1;align=center;verticalAlign=middle;resizable=0;points=[];" vertex="1" connectable="0" parent="hGxTSKR1IFYc1mU9okMd-67">
          <mxGeometry x="0.2286" y="1" relative="1" as="geometry">
            <mxPoint x="25" y="-1" as="offset" />
          </mxGeometry>
        </mxCell>
        <mxCell id="hGxTSKR1IFYc1mU9okMd-69" value="&lt;span style=&quot;font-size: 12px;&quot;&gt;delete_friend(username, friend_username)&lt;/span&gt;" style="rounded=0;orthogonalLoop=1;jettySize=auto;html=1;" edge="1" parent="1">
          <mxGeometry x="0.0018" relative="1" as="geometry">
            <mxPoint x="740" y="1820" as="targetPoint" />
            <mxPoint x="350" y="1820" as="sourcePoint" />
            <mxPoint as="offset" />
          </mxGeometry>
        </mxCell>
        <mxCell id="hGxTSKR1IFYc1mU9okMd-70" value="" style="endArrow=classic;html=1;rounded=0;dashed=1;exitX=0.403;exitY=0.267;exitDx=0;exitDy=0;exitPerimeter=0;" edge="1" parent="1" source="hGxTSKR1IFYc1mU9okMd-62">
          <mxGeometry width="50" height="50" relative="1" as="geometry">
            <mxPoint x="290" y="1970" as="sourcePoint" />
            <mxPoint x="100" y="1970" as="targetPoint" />
          </mxGeometry>
        </mxCell>
        <mxCell id="hGxTSKR1IFYc1mU9okMd-71" value="success_message" style="edgeLabel;html=1;align=center;verticalAlign=middle;resizable=0;points=[];" vertex="1" connectable="0" parent="hGxTSKR1IFYc1mU9okMd-70">
          <mxGeometry x="0.2286" y="1" relative="1" as="geometry">
            <mxPoint x="25" y="-1" as="offset" />
          </mxGeometry>
        </mxCell>
        <mxCell id="hGxTSKR1IFYc1mU9okMd-64" value="" style="rounded=0;whiteSpace=wrap;html=1;direction=south;" vertex="1" parent="1">
          <mxGeometry x="330" y="1810" width="10" height="250" as="geometry" />
        </mxCell>
      </root>
    </mxGraphModel>
  </diagram>
  <diagram id="tM42EIueAEy12_LTNvNd" name="Share Achievement">
    <mxGraphModel dx="954" dy="642" grid="1" gridSize="10" guides="1" tooltips="1" connect="1" arrows="1" fold="1" page="1" pageScale="1" pageWidth="827" pageHeight="1169" math="0" shadow="0">
      <root>
        <mxCell id="0" />
        <mxCell id="1" parent="0" />
        <mxCell id="2UQTcjmS9At1QptR2ErS-30" value="share_achievement(achievement, platform)" style="endArrow=classic;html=1;rounded=0;" parent="1" edge="1">
          <mxGeometry width="50" height="50" relative="1" as="geometry">
            <mxPoint x="147.45999999999998" y="200" as="sourcePoint" />
            <mxPoint x="440" y="200" as="targetPoint" />
          </mxGeometry>
        </mxCell>
        <mxCell id="2UQTcjmS9At1QptR2ErS-32" value="Social_media_API" style="rounded=0;whiteSpace=wrap;html=1;" parent="1" vertex="1">
          <mxGeometry x="794.14" y="50" width="120" height="60" as="geometry" />
        </mxCell>
        <mxCell id="2UQTcjmS9At1QptR2ErS-36" value="share_achievement(achievement)" style="endArrow=classic;html=1;rounded=0;" parent="1" edge="1">
          <mxGeometry width="50" height="50" relative="1" as="geometry">
            <mxPoint x="450" y="210" as="sourcePoint" />
            <mxPoint x="840" y="210" as="targetPoint" />
          </mxGeometry>
        </mxCell>
        <mxCell id="Vk_CFomwq5ejKtbm4mlW-3" value="success_message" style="rounded=0;orthogonalLoop=1;jettySize=auto;html=1;dashed=1;" parent="1" edge="1">
          <mxGeometry relative="1" as="geometry">
            <mxPoint x="140" y="370" as="targetPoint" />
            <mxPoint x="440" y="370" as="sourcePoint" />
          </mxGeometry>
        </mxCell>
        <mxCell id="Vk_CFomwq5ejKtbm4mlW-9" value="Member" style="shape=umlActor;verticalLabelPosition=bottom;verticalAlign=top;html=1;outlineConnect=0;" parent="1" vertex="1">
          <mxGeometry x="131.64" y="40" width="30" height="60" as="geometry" />
        </mxCell>
        <mxCell id="Vk_CFomwq5ejKtbm4mlW-11" value="&lt;b&gt;status&lt;/b&gt;" style="rounded=0;orthogonalLoop=1;jettySize=auto;html=1;dashed=1;" parent="1" edge="1">
          <mxGeometry x="-0.0208" relative="1" as="geometry">
            <mxPoint x="460" y="240" as="targetPoint" />
            <mxPoint x="840.0000000000001" y="240" as="sourcePoint" />
            <mxPoint y="1" as="offset" />
          </mxGeometry>
        </mxCell>
        <mxCell id="Vk_CFomwq5ejKtbm4mlW-12" value="" style="rounded=0;whiteSpace=wrap;html=1;rotation=-90;" parent="1" vertex="1">
          <mxGeometry x="794.14" y="217.5" width="120" height="25" as="geometry" />
        </mxCell>
        <mxCell id="Vk_CFomwq5ejKtbm4mlW-13" value="" style="endArrow=none;dashed=1;html=1;dashPattern=1 3;strokeWidth=2;rounded=0;exitX=1;exitY=0.5;exitDx=0;exitDy=0;entryX=0.5;entryY=1;entryDx=0;entryDy=0;" parent="1" source="Vk_CFomwq5ejKtbm4mlW-12" edge="1" target="2UQTcjmS9At1QptR2ErS-32">
          <mxGeometry width="50" height="50" relative="1" as="geometry">
            <mxPoint x="801.6400000000001" y="200" as="sourcePoint" />
            <mxPoint x="854" y="130" as="targetPoint" />
          </mxGeometry>
        </mxCell>
        <mxCell id="Vk_CFomwq5ejKtbm4mlW-14" value="" style="endArrow=none;dashed=1;html=1;dashPattern=1 3;strokeWidth=2;rounded=0;exitX=0.941;exitY=1.009;exitDx=0;exitDy=0;exitPerimeter=0;" parent="1" source="Vk_CFomwq5ejKtbm4mlW-23" edge="1">
          <mxGeometry width="50" height="50" relative="1" as="geometry">
            <mxPoint x="853.6400000000001" y="620" as="sourcePoint" />
            <mxPoint x="853.6400000000001" y="290" as="targetPoint" />
          </mxGeometry>
        </mxCell>
        <mxCell id="Vk_CFomwq5ejKtbm4mlW-15" value="Profile" style="rounded=0;whiteSpace=wrap;html=1;" parent="1" vertex="1">
          <mxGeometry x="385" y="40" width="120" height="60" as="geometry" />
        </mxCell>
        <mxCell id="Vk_CFomwq5ejKtbm4mlW-16" value="" style="endArrow=none;dashed=1;html=1;dashPattern=1 3;strokeWidth=2;rounded=0;entryX=0.5;entryY=1;entryDx=0;entryDy=0;exitX=0;exitY=0.5;exitDx=0;exitDy=0;" parent="1" target="Vk_CFomwq5ejKtbm4mlW-15" edge="1" source="Vk_CFomwq5ejKtbm4mlW-28">
          <mxGeometry width="50" height="50" relative="1" as="geometry">
            <mxPoint x="582" y="240" as="sourcePoint" />
            <mxPoint x="581.1400000000001" y="140" as="targetPoint" />
            <Array as="points" />
          </mxGeometry>
        </mxCell>
        <mxCell id="Vk_CFomwq5ejKtbm4mlW-18" value="" style="endArrow=none;dashed=1;html=1;dashPattern=1 3;strokeWidth=2;rounded=0;exitX=0.072;exitY=1.004;exitDx=0;exitDy=0;exitPerimeter=0;" parent="1" source="Vk_CFomwq5ejKtbm4mlW-23" edge="1">
          <mxGeometry width="50" height="50" relative="1" as="geometry">
            <mxPoint x="141.64" y="630" as="sourcePoint" />
            <mxPoint x="141.64" y="140" as="targetPoint" />
            <Array as="points">
              <mxPoint x="141.64" y="140" />
              <mxPoint x="141.64" y="120" />
            </Array>
          </mxGeometry>
        </mxCell>
        <mxCell id="Vk_CFomwq5ejKtbm4mlW-20" value="[status = 200]" style="text;html=1;strokeColor=none;fillColor=none;align=center;verticalAlign=middle;whiteSpace=wrap;rounded=0;" parent="1" vertex="1">
          <mxGeometry x="131.64" y="320" width="120" height="30" as="geometry" />
        </mxCell>
        <mxCell id="Vk_CFomwq5ejKtbm4mlW-23" value="alt" style="shape=umlFrame;whiteSpace=wrap;html=1;pointerEvents=0;" parent="1" vertex="1">
          <mxGeometry x="81.64" y="320" width="820" height="150" as="geometry" />
        </mxCell>
        <mxCell id="Vk_CFomwq5ejKtbm4mlW-27" value="" style="endArrow=none;dashed=1;html=1;dashPattern=1 3;strokeWidth=2;rounded=0;entryX=1;entryY=0.5;entryDx=0;entryDy=0;exitX=0.442;exitY=1;exitDx=0;exitDy=0;exitPerimeter=0;" parent="1" source="Vk_CFomwq5ejKtbm4mlW-23" target="Vk_CFomwq5ejKtbm4mlW-28" edge="1">
          <mxGeometry width="50" height="50" relative="1" as="geometry">
            <mxPoint x="581.6400000000001" y="760" as="sourcePoint" />
            <mxPoint x="581.6400000000001" y="110" as="targetPoint" />
            <Array as="points" />
          </mxGeometry>
        </mxCell>
        <mxCell id="Vk_CFomwq5ejKtbm4mlW-28" value="" style="rounded=0;whiteSpace=wrap;html=1;direction=south;" parent="1" vertex="1">
          <mxGeometry x="440" y="185" width="10" height="265" as="geometry" />
        </mxCell>
        <mxCell id="Vk_CFomwq5ejKtbm4mlW-30" value="" style="endArrow=none;dashed=1;html=1;dashPattern=1 3;strokeWidth=2;rounded=0;exitX=-0.003;exitY=0.422;exitDx=0;exitDy=0;exitPerimeter=0;entryX=1.003;entryY=0.428;entryDx=0;entryDy=0;entryPerimeter=0;" parent="1" edge="1">
          <mxGeometry width="50" height="50" relative="1" as="geometry">
            <mxPoint x="99.29999999999995" y="390.0000000000001" as="sourcePoint" />
            <mxPoint x="883.9799999999998" y="391.67999999999995" as="targetPoint" />
          </mxGeometry>
        </mxCell>
        <mxCell id="Vk_CFomwq5ejKtbm4mlW-31" value="[status != 200]" style="text;html=1;strokeColor=none;fillColor=none;align=center;verticalAlign=middle;whiteSpace=wrap;rounded=0;" parent="1" vertex="1">
          <mxGeometry x="121.63999999999999" y="400" width="140" height="30" as="geometry" />
        </mxCell>
        <mxCell id="Vk_CFomwq5ejKtbm4mlW-32" value="error_message" style="endArrow=classic;html=1;rounded=0;dashed=1;" parent="1" edge="1">
          <mxGeometry width="50" height="50" relative="1" as="geometry">
            <mxPoint x="440" y="440" as="sourcePoint" />
            <mxPoint x="140" y="440" as="targetPoint" />
          </mxGeometry>
        </mxCell>
      </root>
    </mxGraphModel>
  </diagram>
</mxfile>
